<?xml version="1.0" encoding="utf-8"?>
<!-- Generator: Adobe Illustrator 16.0.0, SVG Export Plug-In . SVG Version: 6.00 Build 0)  -->
<!DOCTYPE svg PUBLIC "-//W3C//DTD SVG 1.1//EN" "http://www.w3.org/Graphics/SVG/1.1/DTD/svg11.dtd">
<svg version="1.1" id="Capa_1" xmlns="http://www.w3.org/2000/svg" xmlns:xlink="http://www.w3.org/1999/xlink" x="0px" y="0px"
	 width="600px" height="400px" viewBox="0 0 600 400" enable-background="new 0 0 600 400" xml:space="preserve">
<polygon fill="#FFFFFF" stroke="#000000" stroke-miterlimit="10" points="115.598,55.121 113.487,70.445 104.752,63.786 "/>
<circle fill="#AA1D18" stroke="#691F1B" stroke-width="3" stroke-miterlimit="10" cx="91.932" cy="94.927" r="34"/>
<circle fill="#AA1D18" stroke="#691F1B" stroke-width="3" stroke-miterlimit="10" cx="79.932" cy="320.538" r="12"/>
<polygon fill="#FFFFFF" stroke="#000000" stroke-miterlimit="10" points="63.082,52.157 75.582,65.197 65.582,71.697 "/>
<g>
	<polygon fill="#AA1D18" points="40.682,157.999 119.182,160.667 97.487,264.357 63.208,264.357 	"/>
	<path fill="#691F1B" d="M40.687,157.849c3.277-0.077,6.552-0.074,9.827-0.096c3.276-0.033,6.549-0.001,9.824,0.011l9.82,0.113
		l9.817,0.192l9.815,0.264c3.272,0.075,6.542,0.227,9.812,0.341c3.269,0.161,6.539,0.301,9.807,0.515l9.803,0.592l1.069,0.065
		l-0.231,1.003c-1.986,8.604-3.989,17.204-5.825,25.838c-0.933,4.314-1.836,8.636-2.718,12.961l-1.314,6.489l-1.287,6.495
		l-4.976,26.016l-2.526,13.001l-2.571,12.99l-0.215,1.087l-1.131,0.007l-34.279,0.215l-1.285,0.008l-0.27-1.269l-2.83-13.292
		l-2.765-13.305l-2.715-13.316l-2.655-13.329l-2.652-13.329l-2.553-13.351c-0.85-4.45-1.714-8.897-2.519-13.357
		c-0.817-4.458-1.649-8.912-2.428-13.377l-0.031-0.177L40.687,157.849z M40.876,158.165c1.081,4.333,2.112,8.675,3.157,13.016
		c1.072,4.403,2.085,8.819,3.113,13.231l3.078,13.239l2.979,13.261l2.977,13.261l2.916,13.273l2.867,13.284l2.801,13.298
		l-1.555-1.261l34.279,0.215l-1.346,1.094l2.853-12.933l2.897-12.922l5.872-25.829l1.425-6.467l1.397-6.472
		c0.926-4.315,1.831-8.636,2.706-12.963c1.78-8.646,3.393-17.328,5.023-26.006l0.837,1.068l-9.821-0.075
		c-3.274-0.008-6.546-0.091-9.818-0.152c-3.271-0.108-6.543-0.179-9.813-0.326l-9.81-0.403l-9.808-0.475l-9.805-0.554
		c-3.268-0.21-6.536-0.401-9.801-0.656C47.274,158.673,44.074,158.455,40.876,158.165z"/>
</g>
<polyline fill="none" stroke="#BD6D18" stroke-width="7" stroke-miterlimit="10" points="192.753,44.056 206.375,42.231 
	217.695,40.833 228.914,40.354 235.722,39.582 255.318,39.833 "/>
<path fill="#DFA22E" stroke="#000000" stroke-width="2" stroke-miterlimit="10" d="M158.467,305.662l24.787,7.318l-3.069,6.138
	c0,0-6.968,1.493-9.324,1.417c-1.925-0.063-7.523-1.652-7.523-1.652L158.467,305.662z"/>
<path fill="#DFA22E" stroke="#000000" stroke-width="2" stroke-miterlimit="10" d="M212.983,305.662l-19.2,7.318l2.377,6.138
	c0,0,5.398,1.493,7.224,1.417c1.49-0.063,5.827-1.652,5.827-1.652L212.983,305.662z"/>
<line fill="none" stroke="#000000" stroke-width="2" stroke-miterlimit="10" x1="171.838" y1="335.537" x2="172.234" y2="340.564"/>
<line fill="none" stroke="#000000" stroke-width="2" stroke-miterlimit="10" x1="199.617" y1="335.059" x2="199.617" y2="340.069"/>
<circle fill="#DFA22E" stroke="#000000" stroke-width="2" stroke-miterlimit="10" cx="267.328" cy="318.166" r="14.23"/>
<circle fill="#DFA22E" stroke="#000000" stroke-width="2" stroke-miterlimit="10" cx="304.768" cy="318.166" r="13.02"/>
<g>
	<path fill="none" stroke="#749FB2" stroke-width="3" stroke-miterlimit="10" d="M462.992,79.771c0,0,3.773,0.809,4.832,1.5
		c1.756,1.146,4.965,4.306,5.5,6.333c1.07,4.053-2.389,12.512-1.832,16.667c0.246,1.836,2.018,5.419,3.5,6.529
		c2.516,1.884,8.787,3.897,11.928,3.971c2.236,0.052,8.814-1.525,8.814-1.525l7.258-2.446c0,0,5.916-2.896,7.348-4.505
		c1.773-1.996,4.77-7.04,4.484-9.695c-0.432-4.026-6.191-10.462-8.5-13.79c-1.342-1.937-4-6.948-4-8.54s3.4-7.45,3.4-7.45"/>
	<polygon fill="#749FB2" points="458.387,77.646 464.281,83.941 466.822,77.69 	"/>
	<polygon fill="#749FB2" points="508.48,62.783 501.695,68.106 507.701,71.182 	"/>
	<line fill="none" stroke="#2D3639" stroke-width="4" stroke-miterlimit="10" x1="482.324" y1="72.271" x2="551.824" y2="241.963"/>
	<polygon fill="#749FB2" points="480.303,67.204 480.26,75.829 486.4,73.033 	"/>
	<circle fill="#5898AA" cx="551.824" cy="242.273" r="2.754"/>
</g>
<g>
	<path fill="#BE871A" stroke="#96681F" stroke-width="4" stroke-miterlimit="10" d="M205.834,219.03l65.646-3.66h10.701l6.014,1.83
		l45.75,1.83l3.398,4.275c0,0,1.716,7.542,0,8.997c-2.729,2.313-14.117-2.339-14.117-2.339l-15.947-4.766l-27.45,1.675
		l-12.601-2.869h-59.03L205.834,219.03z"/>
	<path fill="#362210" stroke="#3B270F" stroke-miterlimit="10" d="M302.604,192.729c0,0,14.885,9.007,19.296,12.744
		c3.113,2.639,11.11,12.745,11.11,12.745h-5.229c0,0,0.715-6.819-8.627-10.065C311.442,205.473,302.604,192.729,302.604,192.729z"/>
	<path fill="#362210" stroke="#3B270F" stroke-miterlimit="10" d="M302.604,252.016c0,0,14.885-8.855,19.296-12.529
		c3.113-2.594,11.11-12.53,11.11-12.53h-5.229c0,0,0.715,6.704-8.627,9.896C311.442,239.486,302.604,252.016,302.604,252.016z"/>
</g>
<g>
	<g>
		<polygon fill="#3B270F" points="204.053,143.025 353.053,145.525 204.053,148.025 		"/>
	</g>
	<polygon fill="none" stroke="#3B270F" stroke-width="3" stroke-miterlimit="10" points="203.817,143.374 199.947,141.025 
		211.973,141.025 213.908,143.374 	"/>
	<polygon fill="none" stroke="#3B270F" stroke-width="3" stroke-miterlimit="10" points="204.817,146 200.947,148.775 
		212.973,148.775 214.908,146 	"/>
</g>
</svg>
